# xmcd
#
# Track frame offsets:
#	150
#	2707
#	19792
#	33444
#	64583
#	84717
#	99034
#	115280
#	133185
#	148972
#	178606
#	193983
#	210724
#	226946
#	257329
#
# Disc length: 4029 seconds
#
# Revision: 0
# Processed by: cddbd v1.4PL0 Copyright (c) Steve Scherf et al.
# Submitted via: dBpowerAMP V4.0
#
DISCID=cc0fbb0f
DTITLE=Crosby, Stills, Nash and Young - 4 Way Street
DYEAR=1900
DGENRE=
TTITLE0=Suite: Judy Blue Eyes
TTITLE1=On The Way Home
TTITLE2=Teach Your Children
TTITLE3=Triad
TTITLE4=The Lee Shore
TTITLE5=Chicago
TTITLE6=Right Between The Eyes
TTITLE7=Cowgirl In The Sand
TTITLE8=Don't Let It Bring You Down
TTITLE9=49 Bye-Byes/America's Children
TTITLE10=Love The One You're With
TTITLE11=King Midas In Reverse
TTITLE12=Laughing
TTITLE13=Black Queen
TTITLE14=Medley: The Loner - Cinnamon Girl - Down By The River
EXTD=Crosby, Stills, Nash and Young\n4 Way Street  \ndisc 1
EXTT0=
EXTT1=
EXTT2=
EXTT3=
EXTT4=
EXTT5=
EXTT6=
EXTT7=
EXTT8=
EXTT9=
EXTT10=
EXTT11=
EXTT12=
EXTT13=
EXTT14=
PLAYORDER=
